<?xml version="1.0" standalone="no"?><!-- Generator: Gravit.io --><svg xmlns="http://www.w3.org/2000/svg" xmlns:xlink="http://www.w3.org/1999/xlink" style="isolation:isolate" viewBox="0 0 470.323 111.136" width="470.323" height="111.136"><defs><clipPath id="_clipPath_xD0Yqix2qgVm8tdrPFrPE6tWb2hM6E5L"><rect width="470.323" height="111.136"/></clipPath></defs><g clip-path="url(#_clipPath_xD0Yqix2qgVm8tdrPFrPE6tWb2hM6E5L)"><path d=" M 107.749 42.273 L 107.749 42.273 L 107.749 42.273 Q 107.749 62.005 98.323 73.304 L 98.323 73.304 L 98.323 73.304 Q 88.896 84.603 72.113 84.603 L 72.113 84.603 L 72.113 84.603 Q 54.959 84.603 45.639 73.501 L 45.639 73.501 L 45.639 73.501 Q 36.318 62.398 36.318 42.161 L 36.318 42.161 L 36.318 42.161 Q 36.318 22.092 45.665 11.046 L 45.665 11.046 L 45.665 11.046 Q 55.012 0 72.22 0 L 72.22 0 L 72.22 0 Q 88.949 0 98.349 11.243 L 98.349 11.243 L 98.349 11.243 Q 107.749 22.486 107.749 42.273 Z  M 45.878 42.273 L 45.878 42.273 L 45.878 42.273 Q 45.878 58.969 52.596 67.598 L 52.596 67.598 L 52.596 67.598 Q 59.314 76.227 72.113 76.227 L 72.113 76.227 L 72.113 76.227 Q 85.019 76.227 91.604 67.626 L 91.604 67.626 L 91.604 67.626 Q 98.19 59.025 98.19 42.273 L 98.19 42.273 L 98.19 42.273 Q 98.19 25.69 91.631 17.117 L 91.631 17.117 L 91.631 17.117 Q 85.072 8.545 72.22 8.545 L 72.22 8.545 L 72.22 8.545 Q 59.314 8.545 52.596 17.174 L 52.596 17.174 L 52.596 17.174 Q 45.878 25.803 45.878 42.273 Z  M 172.383 83.479 L 163.567 83.479 L 163.567 43.623 L 163.567 43.623 Q 163.567 36.09 160.327 32.38 L 160.327 32.38 L 160.327 32.38 Q 157.087 28.669 150.183 28.669 L 150.183 28.669 L 150.183 28.669 Q 141.049 28.669 136.8 33.897 L 136.8 33.897 L 136.8 33.897 Q 132.551 39.125 132.551 51.155 L 132.551 51.155 L 132.551 83.479 L 123.735 83.479 L 123.735 21.868 L 130.905 21.868 L 132.339 30.3 L 132.764 30.3 L 132.764 30.3 Q 135.472 25.746 140.358 23.245 L 140.358 23.245 L 140.358 23.245 Q 145.244 20.743 151.246 20.743 L 151.246 20.743 L 151.246 20.743 Q 161.761 20.743 167.072 26.112 L 167.072 26.112 L 167.072 26.112 Q 172.383 31.48 172.383 43.285 L 172.383 43.285 L 172.383 83.479 Z  M 215.082 84.603 L 215.082 84.603 L 215.082 84.603 Q 202.177 84.603 194.715 76.283 L 194.715 76.283 L 194.715 76.283 Q 187.253 67.964 187.253 53.179 L 187.253 53.179 L 187.253 53.179 Q 187.253 38.282 194.184 29.513 L 194.184 29.513 L 194.184 29.513 Q 201.115 20.743 212.799 20.743 L 212.799 20.743 L 212.799 20.743 Q 223.739 20.743 230.112 28.36 L 230.112 28.36 L 230.112 28.36 Q 236.485 35.977 236.485 48.457 L 236.485 48.457 L 236.485 54.36 L 196.388 54.36 L 196.388 54.36 Q 196.654 65.209 201.566 70.831 L 201.566 70.831 L 201.566 70.831 Q 206.479 76.452 215.401 76.452 L 215.401 76.452 L 215.401 76.452 Q 224.801 76.452 233.989 72.292 L 233.989 72.292 L 233.989 80.612 L 233.989 80.612 Q 229.315 82.748 225.146 83.676 L 225.146 83.676 L 225.146 83.676 Q 220.977 84.603 215.082 84.603 Z  M 212.692 28.557 L 212.692 28.557 L 212.692 28.557 Q 205.682 28.557 201.513 33.392 L 201.513 33.392 L 201.513 33.392 Q 197.344 38.226 196.6 46.771 L 196.6 46.771 L 227.032 46.771 L 227.032 46.771 Q 227.032 37.945 223.314 33.251 L 223.314 33.251 L 223.314 33.251 Q 219.597 28.557 212.692 28.557 Z  M 296.657 61.611 L 296.657 61.611 L 296.657 61.611 Q 296.657 72.461 289.222 78.532 L 289.222 78.532 L 289.222 78.532 Q 281.787 84.603 269.041 84.603 L 269.041 84.603 L 269.041 84.603 Q 255.232 84.603 247.797 80.837 L 247.797 80.837 L 247.797 71.618 L 247.797 71.618 Q 252.577 73.754 258.207 74.99 L 258.207 74.99 L 258.207 74.99 Q 263.836 76.227 269.359 76.227 L 269.359 76.227 L 269.359 76.227 Q 278.388 76.227 282.955 72.601 L 282.955 72.601 L 282.955 72.601 Q 287.523 68.975 287.523 62.511 L 287.523 62.511 L 287.523 62.511 Q 287.523 58.238 285.903 55.512 L 285.903 55.512 L 285.903 55.512 Q 284.283 52.786 280.486 50.481 L 280.486 50.481 L 280.486 50.481 Q 276.688 48.176 268.935 45.253 L 268.935 45.253 L 268.935 45.253 Q 258.1 41.149 253.453 35.528 L 253.453 35.528 L 253.453 35.528 Q 248.806 29.906 248.806 20.856 L 248.806 20.856 L 248.806 20.856 Q 248.806 11.355 255.551 5.734 L 255.551 5.734 L 255.551 5.734 Q 262.296 0.112 273.396 0.112 L 273.396 0.112 L 273.396 0.112 Q 284.973 0.112 294.692 4.61 L 294.692 4.61 L 291.878 12.929 L 291.878 12.929 Q 282.265 8.657 273.183 8.657 L 273.183 8.657 L 273.183 8.657 Q 266.014 8.657 261.977 11.918 L 261.977 11.918 L 261.977 11.918 Q 257.941 15.178 257.941 20.968 L 257.941 20.968 L 257.941 20.968 Q 257.941 25.24 259.428 27.967 L 259.428 27.967 L 259.428 27.967 Q 260.915 30.693 264.447 32.97 L 264.447 32.97 L 264.447 32.97 Q 267.979 35.247 275.255 38.001 L 275.255 38.001 L 275.255 38.001 Q 287.47 42.611 292.063 47.895 L 292.063 47.895 L 292.063 47.895 Q 296.657 53.179 296.657 61.611 Z  M 338.295 84.603 L 338.295 84.603 L 338.295 84.603 Q 332.612 84.603 327.912 82.383 L 327.912 82.383 L 327.912 82.383 Q 323.212 80.162 320.025 75.553 L 320.025 75.553 L 319.388 75.553 L 319.388 75.553 Q 320.025 80.949 320.025 85.784 L 320.025 85.784 L 320.025 111.136 L 311.209 111.136 L 311.209 21.868 L 318.379 21.868 L 319.6 30.3 L 320.025 30.3 L 320.025 30.3 Q 323.424 25.24 327.938 22.992 L 327.938 22.992 L 327.938 22.992 Q 332.453 20.743 338.295 20.743 L 338.295 20.743 L 338.295 20.743 Q 349.872 20.743 356.166 29.119 L 356.166 29.119 L 356.166 29.119 Q 362.459 37.495 362.459 52.617 L 362.459 52.617 L 362.459 52.617 Q 362.459 67.795 356.06 76.199 L 356.06 76.199 L 356.06 76.199 Q 349.66 84.603 338.295 84.603 Z  M 337.02 28.669 L 337.02 28.669 L 337.02 28.669 Q 328.098 28.669 324.115 33.897 L 324.115 33.897 L 324.115 33.897 Q 320.131 39.125 320.025 50.537 L 320.025 50.537 L 320.025 52.617 L 320.025 52.617 Q 320.025 65.603 324.115 71.196 L 324.115 71.196 L 324.115 71.196 Q 328.204 76.789 337.232 76.789 L 337.232 76.789 L 337.232 76.789 Q 344.774 76.789 349.049 70.325 L 349.049 70.325 L 349.049 70.325 Q 353.324 63.86 353.324 52.505 L 353.324 52.505 L 353.324 52.505 Q 353.324 40.981 349.049 34.825 L 349.049 34.825 L 349.049 34.825 Q 344.774 28.669 337.02 28.669 Z  M 428.102 52.617 L 428.102 52.617 L 428.102 52.617 Q 428.102 67.682 420.932 76.143 L 420.932 76.143 L 420.932 76.143 Q 413.762 84.603 401.122 84.603 L 401.122 84.603 L 401.122 84.603 Q 393.315 84.603 387.261 80.724 L 387.261 80.724 L 387.261 80.724 Q 381.207 76.845 377.914 69.594 L 377.914 69.594 L 377.914 69.594 Q 374.621 62.342 374.621 52.617 L 374.621 52.617 L 374.621 52.617 Q 374.621 37.551 381.738 29.147 L 381.738 29.147 L 381.738 29.147 Q 388.854 20.743 401.494 20.743 L 401.494 20.743 L 401.494 20.743 Q 413.709 20.743 420.905 29.344 L 420.905 29.344 L 420.905 29.344 Q 428.102 37.945 428.102 52.617 Z  M 383.756 52.617 L 383.756 52.617 L 383.756 52.617 Q 383.756 64.422 388.217 70.606 L 388.217 70.606 L 388.217 70.606 Q 392.678 76.789 401.335 76.789 L 401.335 76.789 L 401.335 76.789 Q 409.991 76.789 414.479 70.634 L 414.479 70.634 L 414.479 70.634 Q 418.967 64.478 418.967 52.617 L 418.967 52.617 L 418.967 52.617 Q 418.967 40.868 414.479 34.769 L 414.479 34.769 L 414.479 34.769 Q 409.991 28.669 401.229 28.669 L 401.229 28.669 L 401.229 28.669 Q 392.572 28.669 388.164 34.684 L 388.164 34.684 L 388.164 34.684 Q 383.756 40.699 383.756 52.617 Z  M 462.357 76.902 L 462.357 76.902 L 462.357 76.902 Q 464.693 76.902 466.871 76.536 L 466.871 76.536 L 466.871 76.536 Q 469.048 76.171 470.323 75.777 L 470.323 75.777 L 470.323 82.917 L 470.323 82.917 Q 468.889 83.647 466.101 84.125 L 466.101 84.125 L 466.101 84.125 Q 463.313 84.603 461.082 84.603 L 461.082 84.603 L 461.082 84.603 Q 444.194 84.603 444.194 65.771 L 444.194 65.771 L 444.194 29.119 L 435.855 29.119 L 435.855 24.622 L 444.194 20.743 L 447.911 7.589 L 453.01 7.589 L 453.01 21.868 L 469.898 21.868 L 469.898 29.119 L 453.01 29.119 L 453.01 65.378 L 453.01 65.378 Q 453.01 70.943 455.506 73.922 L 455.506 73.922 L 455.506 73.922 Q 458.002 76.902 462.357 76.902 Z " fill-rule="evenodd" fill="rgb(97,97,97)"/><path d=" M 0 68.098 C 0 61.183 5.615 55.568 12.53 55.568 C 19.446 55.568 25.06 61.183 25.06 68.098 C 25.06 75.014 19.446 80.628 12.53 80.628 C 5.615 80.628 0 75.014 0 68.098 Z " fill="rgb(97,97,97)"/></g></svg>